# xmcd
#
# Track frame offsets:
#	150
#	12267
#	27280
#	41461
#	54874
#	68453
#	83069
#	99129
#	114221
#	126994
#	137891
#	152850
#	165240
#	180271
#	192959
#	206738
#	220819
#	232385
#	246794
#	260971
#	274070
#	286806
#	298049
#	311641
#
# Disc length: 4346 seconds
#
# Revision: 0
# Processed by: cddbd v1.5.1PL0 Copyright (c) Steve Scherf et al.
# Submitted via: dBpowerAMP V4.0
#
DISCID=5210f818
DTITLE=Le Blues 1925-1952 - Disc 3
DYEAR=1900
DGENRE=Blues
TTITLE0=I Never Told a Lie (Memphis Minnie)
TTITLE1=Rolling Log Blues (Lottie Kimbrough)
TTITLE2=Leaving This Morning (Ma Rainey)
TTITLE3=The Yellow Dog Blues (Bessie Smith)
TTITLE4=T and N O Blues (Lucille Bogan)
TTITLE5=Doggone My Good Luck Soul (Hattie Hudson)
TTITLE6=Penitentiary Blues (Bessie Tucker)
TTITLE7=Christmas Morning Blues (Victoria Spivey)
TTITLE8=When a Gator Hollers (Margaret Johnson)
TTITLE9=Territory Blues (Georgia White)
TTITLE10=Razor Totin' Mama (Perline Ellison)
TTITLE11=Double Trouble Blues (Jane Lucas)
TTITLE12=These Young Men Blues (Beatrice Booze)
TTITLE13=Good Old Easy Street (Yas Yas Girl)
TTITLE14=Whip It to a Jelly (Yack Taylor)
TTITLE15=Unlucky Woman (Helen Humes)
TTITLE16=Papa Tree Tap Blues (Albinia Jones)
TTITLE17=The Lowdown Lonely Blues (Sweet Georgia Brown)
TTITLE18=Put Me Back in the Alley (Mae Hopkins)
TTITLE19=Why Don't You Do Right? (Nora Lee King)
TTITLE20=Down the Line (Ethel Mae)
TTITLE21=Lonesome (Lillie Mae Kirkman)
TTITLE22=Crazy World (Julia Lee)
TTITLE23=Bootin' the Boogie (Christine Chatman)
EXTD=
EXTT0=
EXTT1=
EXTT2=
EXTT3=
EXTT4=
EXTT5=
EXTT6=
EXTT7=
EXTT8=
EXTT9=
EXTT10=
EXTT11=
EXTT12=
EXTT13=
EXTT14=
EXTT15=
EXTT16=
EXTT17=
EXTT18=
EXTT19=
EXTT20=
EXTT21=
EXTT22=
EXTT23=
PLAYORDER=
